<svg xmlns="http://www.w3.org/2000/svg" width="14" height="14" viewBox="0 0 800 800" id="gear-stick"><path d="M608.408 634.192c-4.893-4.539-10.242-8.891-15.965-13.063 5.984-8.435 9.117-19.024 9.117-31.445 0-29.27-16.898-57.232-47.582-78.738a172.24 172.24 0 0 0-6.92-4.575c3.926-7.452 6.377-17.099 6.377-29.569 0-33.306-16.705-64.246-47.041-87.122-16.641-12.549-36.369-21.816-57.813-27.386v-100.75c44.311-18.937 75.441-62.953 75.441-114.106 0-68.387-55.637-124.024-124.024-124.024S275.974 79.051 275.974 147.438c0 51.153 31.132 95.169 75.441 114.106v100.751c-21.442 5.569-41.171 14.836-57.813 27.385-30.335 22.875-47.041 53.816-47.041 87.122 0 12.467 2.45 22.109 6.373 29.563-34.747 21.915-54.498 51.354-54.498 83.32 0 12.41 3.127 22.992 9.103 31.424-35.14 25.648-54.31 57.971-54.31 92.117 0 18.82 5.901 33.806 17.542 44.539 15.739 14.514 38.709 18.822 68.449 18.821 19.088 0 40.969-1.775 65.506-3.767 28.789-2.338 61.419-4.986 95.271-4.986 33.852 0 66.483 2.648 95.27 4.986 62.768 5.094 108.115 8.774 133.957-15.055 11.641-10.733 17.543-25.719 17.543-44.539.003-28.426-13.263-55.755-38.359-79.033zM315.975 147.438c0-46.332 37.693-84.024 84.024-84.024s84.024 37.693 84.024 84.024c0 46.33-37.693 84.022-84.024 84.022-46.331.001-84.024-37.691-84.024-84.022zm75.442 123.721c2.837.195 5.697.302 8.583.302 2.885 0 5.747-.107 8.583-.302v85.21c-2.848-.122-5.709-.19-8.583-.19-2.873 0-5.734.068-8.583.19v-85.21zm210.694 457.199c-5.082 4.686-16.146 7.392-32.891 8.042-19.074.739-43.006-1.201-70.715-3.45-29.545-2.398-63.033-5.117-98.506-5.117-35.474 0-68.962 2.719-98.508 5.117-27.711 2.248-51.645 4.189-70.713 3.45-16.743-.65-27.809-3.356-32.891-8.042-1.273-1.174-4.657-4.295-4.657-15.133 0-51.18 77.991-97.121 177.554-104.591 11.015-.826 19.273-10.425 18.447-21.44-.826-11.014-10.429-19.277-21.439-18.447-46.173 3.465-89.554 14.48-124.999 31.503-3.679-2.002-4.355-4.897-4.355-10.565 0-25.354 27.161-50.68 70.884-66.097 10.418-3.673 15.885-15.095 12.211-25.513-3.672-10.418-15.096-15.883-25.512-12.211a251.763 251.763 0 0 0-6.988 2.594c-1.588-1.626-2.47-4.776-2.47-11.656 0-20.451 11.054-40.049 31.124-55.184 21.756-16.405 50.988-25.44 82.313-25.44 31.325 0 60.557 9.035 82.313 25.44 20.07 15.135 31.123 34.732 31.123 55.184 0 6.811-.906 9.973-2.469 11.614-19.307-7.469-40.824-12.94-63.928-16.149-10.941-1.521-21.041 6.116-22.561 17.057-1.521 10.941 6.117 21.043 17.057 22.563 35.463 4.926 67.242 16.225 89.484 31.815 13.932 9.766 30.541 25.67 30.541 45.983 0 5.673-.678 8.568-4.363 10.57-12.436-5.984-25.893-11.266-40.199-15.728-10.545-3.29-21.76 2.595-25.049 13.14-3.287 10.544 2.596 21.758 13.141 25.047 31.66 9.873 57.982 23.984 76.117 40.806 11.662 10.815 25.563 28.22 25.563 49.706 0 10.837-3.385 13.958-4.659 15.132z"></path><path d="M452.385 570.755a415.824 415.824 0 00-19.092-1.926c-11.025-.855-20.633 7.38-21.488 18.392-.854 11.013 7.381 20.634 18.393 21.488 5.777.448 11.58 1.034 17.246 1.739a20.26 20.26 0 002.494.154c9.943 0 18.563-7.408 19.822-17.531 1.365-10.961-6.414-20.953-17.375-22.316zM415 158.693v-10.279h20.928v10.279c0 8.284 6.715 15 15 15 8.283 0 15-6.716 15-15v-25.279c0-8.284-6.717-15-15-15H415v-7.532c0-8.284-6.717-15-15-15-8.284 0-15 6.716-15 15v7.532h-20.929v-7.532c0-8.284-6.716-15-15-15s-15 6.716-15 15v47.811c0 8.284 6.716 15 15 15s15-6.716 15-15v-10.279H385v10.279c0 8.284 6.716 15 15 15 8.283 0 15-6.715 15-15zM380.443 469.604a340.36 340.36 0 00-19.037 1.6c-10.977 1.238-18.871 11.139-17.633 22.115 1.151 10.215 9.807 17.762 19.849 17.762.749 0 1.505-.043 2.266-.129a300.071 300.071 0 0116.787-1.41c11.028-.615 19.47-10.056 18.853-21.084-.618-11.029-10.083-19.484-21.085-18.854z"></path></svg>
